<svg xmlns="http://www.w3.org/2000/svg" width="116" height="20" viewBox="-2238 5255 116 20"><g data-name="CompositeLayer"><path d="M-2228.926 5255.633c.32-.844 1.531-.844 1.852 0l2.07 5.734a.99.99 0 0 0 .926.633h5.087c.94 0 1.35 1.17.61 1.743l-3.62 3.256a.968.968 0 0 0-.321 1.092l1.322 5.603c.322.9-.72 1.673-1.508 1.12l-4.917-3.12a1 1 0 0 0-1.15 0l-4.917 3.12c-.787.553-1.83-.22-1.508-1.12l1.322-5.603A.968.968 0 0 0-2234 5267l-3.62-3.256c-.74-.573-.327-1.743.61-1.743h5.087c.41.001.779-.25.926-.633l2.07-5.734ZM-2204.926 5255.633c.32-.844 1.531-.844 1.852 0l2.07 5.734a.99.99 0 0 0 .926.633h5.087c.94 0 1.35 1.17.61 1.743l-3.62 3.256a.968.968 0 0 0-.321 1.092l1.322 5.603c.322.9-.72 1.673-1.508 1.12l-4.917-3.12a1 1 0 0 0-1.15 0l-4.917 3.12c-.787.553-1.83-.22-1.508-1.12l1.322-5.603A.968.968 0 0 0-2210 5267l-3.62-3.256c-.74-.573-.327-1.743.61-1.743h5.087c.41.001.779-.25.926-.633l2.07-5.734ZM-2180.926 5255.633c.32-.844 1.531-.844 1.852 0l2.07 5.734a.99.99 0 0 0 .926.633h5.087c.94 0 1.35 1.17.61 1.743l-3.62 3.256a.968.968 0 0 0-.321 1.092l1.322 5.603c.322.9-.72 1.673-1.508 1.12l-4.917-3.12a1 1 0 0 0-1.15 0l-4.917 3.12c-.787.553-1.83-.22-1.508-1.12l1.322-5.603A.968.968 0 0 0-2186 5267l-3.62-3.256c-.74-.573-.327-1.743.61-1.743h5.087c.41.001.779-.25.926-.633l2.07-5.734ZM-2156.926 5255.633c.32-.844 1.531-.844 1.852 0l2.07 5.734a.99.99 0 0 0 .926.633h5.087c.94 0 1.35 1.17.61 1.743l-3.62 3.256a.968.968 0 0 0-.321 1.092l1.322 5.603c.322.9-.72 1.673-1.508 1.12l-4.917-3.12a1 1 0 0 0-1.15 0l-4.917 3.12c-.787.553-1.83-.22-1.508-1.12l1.322-5.603A.968.968 0 0 0-2162 5267l-3.62-3.256c-.74-.573-.327-1.743.61-1.743h5.087c.41.001.779-.25.926-.633l2.07-5.734ZM-2132.926 5255.633c.32-.844 1.531-.844 1.852 0l2.07 5.734a.99.99 0 0 0 .926.633h5.087c.94 0 1.35 1.17.61 1.743l-3.62 3.256a.968.968 0 0 0-.321 1.092l1.322 5.603c.322.9-.72 1.673-1.508 1.12l-4.917-3.12a1 1 0 0 0-1.15 0l-4.917 3.12c-.787.553-1.83-.22-1.508-1.12l1.322-5.603A.968.968 0 0 0-2138 5267l-3.62-3.256c-.74-.573-.327-1.743.61-1.743h5.087c.41.001.779-.25.926-.633l2.07-5.734Z" fill="#d10909" fill-rule="evenodd" data-name="Icon akar-star"/></g></svg>