<svg xmlns="http://www.w3.org/2000/svg" width="104" height="80" viewBox="491 1736.422 26 20"><g data-name="Icon ion-bed-outline"><path d="M512 1745.422h-18v-6.5a2.507 2.507 0 0 1 2.5-2.5h15a2.508 2.508 0 0 1 2.5 2.5v6.5h-2Zm-21 11v-7a4.012 4.012 0 0 1 4-4h18a4.012 4.012 0 0 1 4 4v7" stroke-linejoin="round" stroke-linecap="round" stroke-width="1.6" stroke="#96a6af" fill="transparent" data-name="Path 8"/><path d="M491 1756.422v-.5a1.503 1.503 0 0 1 1.5-1.497h23a1.503 1.503 0 0 1 1.5 1.498v.499m-22-10.982v-.998a2.004 2.004 0 0 1 2-1.997h5a2.004 2.004 0 0 1 2 1.997v.998m0 0v-.998a2.004 2.004 0 0 1 2-1.997h5a2.004 2.004 0 0 1 2 1.997v.998" stroke-linejoin="round" stroke-linecap="round" stroke-width="1.6" stroke="#96a6af" fill="transparent" data-name="Path 9"/></g></svg>