<svg xmlns="http://www.w3.org/2000/svg" width="64" height="80" viewBox="370 1736.5 16 20"><g data-name="scale"><g data-name="Group 5"><g data-name="Group 4"><path d="M376.875 1736.5h-6.25a.625.625 0 0 0-.625.625v18.75c0 .345.28.624.625.624h6.25c.345 0 .625-.28.625-.624v-18.75a.625.625 0 0 0-.625-.624Zm-.625 18.75h-5v-1.875h3.125v-1.25h-3.125v-1.875h1.875V1749h-1.875v-1.875h3.125v-1.25h-3.125V1744h1.875v-1.25h-1.875v-1.875h3.125v-1.25h-3.125v-1.875h5v17.5Z" fill-rule="evenodd" fill="#96a6af" data-name="Path 6"/><path d="m385.119 1752.312-2.063 2.056v-15.736l2.057 2.056.88-.881-3.124-3.125a.625.625 0 0 0-.881 0l-3.125 3.125.881.88 2.062-2.055v15.736l-2.056-2.056-.88.881 3.124 3.125a.625.625 0 0 0 .881 0l3.125-3.125-.881-.88Z" fill-rule="evenodd" fill="#96a6af" data-name="Path 7"/></g></g></g></svg>